<?xml version="1.0" standalone="no"?><!DOCTYPE svg PUBLIC "-//W3C//DTD SVG 1.1//EN" "http://www.w3.org/Graphics/SVG/1.1/DTD/svg11.dtd"><svg t="1660185979844" class="icon" viewBox="0 0 1024 1024" version="1.1" xmlns="http://www.w3.org/2000/svg" p-id="15159" xmlns:xlink="http://www.w3.org/1999/xlink" width="200" height="200"><defs><style type="text/css">@font-face { font-family: "feedback-iconfont"; src: url("//at.alicdn.com/t/font_1031158_u69w8yhxdu.woff2?t=1630033759944") format("woff2"), url("//at.alicdn.com/t/font_1031158_u69w8yhxdu.woff?t=1630033759944") format("woff"), url("//at.alicdn.com/t/font_1031158_u69w8yhxdu.ttf?t=1630033759944") format("truetype"); }
</style></defs><path d="M349.037461 729.521204c-14.988009 14.975366-39.297917 14.975366-54.298569 0-14.988009-14.986203-14.988009-39.274436 0-54.249802 54.298569-54.262445 108.595333-108.512247 162.893902-162.762048l-162.893902-162.749405c-14.988009-14.986203-14.988009-39.274436 0-54.249801 14.998846-14.986203 39.308754-14.986203 54.298569 0l162.895709 162.749404c54.307601-54.249802 108.607976-108.499603 162.904739-162.749404 14.988009-14.986203 39.297917-14.986203 54.29857 0 15.000653 14.975366 15.000653 39.263599 0 54.249801l-162.895709 162.749405c54.300376 54.249802 108.597139 108.499603 162.895709 162.762048 15.000653 14.975366 15.000653 39.263599 0 54.249802-15.000653 14.975366-39.308754 14.975366-54.29857 0-54.298569-54.249802-108.597139-108.512247-162.904739-162.762049-54.298569 54.249802-108.597139 108.512247-162.895709 162.762049zM102.392775 1024h819.100658c56.536475 0 102.381938-45.803919 102.381938-102.302464V103.321172c0-56.498545-45.845462-102.302464-102.381938-102.302464H102.392775C45.845462 1.018708 0 46.824433 0 103.321172v818.376364c0 56.498545 45.845462 102.302464 102.392775 102.302464z" fill="#8a8a8a" p-id="15160"></path></svg>