<?xml version="1.0" standalone="no"?><!DOCTYPE svg PUBLIC "-//W3C//DTD SVG 1.1//EN" "http://www.w3.org/Graphics/SVG/1.1/DTD/svg11.dtd"><svg t="1660184007406" class="icon" viewBox="0 0 1024 1024" version="1.1" xmlns="http://www.w3.org/2000/svg" p-id="3976" xmlns:xlink="http://www.w3.org/1999/xlink" width="200" height="200"><defs><style type="text/css">@font-face { font-family: "feedback-iconfont"; src: url("//at.alicdn.com/t/font_1031158_u69w8yhxdu.woff2?t=1630033759944") format("woff2"), url("//at.alicdn.com/t/font_1031158_u69w8yhxdu.woff?t=1630033759944") format("woff"), url("//at.alicdn.com/t/font_1031158_u69w8yhxdu.ttf?t=1630033759944") format("truetype"); }
</style></defs><path d="M896 298.666667h-51.2c-17.066667-51.2-64-85.333333-119.466667-85.333334h-213.333333V128c0-46.933333-38.4-85.333333-85.333333-85.333333H256c-46.933333 0-85.333333 38.4-85.333333 85.333333v85.333333H128C55.466667 213.333333 0 268.8 0 341.333333v341.333334c0 72.533333 55.466667 128 128 128h17.066667l-55.466667 110.933333c-8.533333 12.8-4.266667 29.866667 0 42.666667s25.6 17.066667 38.4 17.066666h597.333333c12.8 0 29.866667-8.533333 38.4-21.333333s8.533333-29.866667 0-42.666667L708.266667 810.666667h17.066666c55.466667 0 102.4-34.133333 119.466667-85.333334H896c72.533333 0 128-55.466667 128-128v-170.666666c0-72.533333-55.466667-128-128-128zM256 128h170.666667v85.333333H256V128z m401.066667 768H196.266667l42.666666-85.333333h375.466667l42.666667 85.333333z m281.6-298.666667c0 25.6-17.066667 42.666667-42.666667 42.666667h-85.333333c-25.6 0-42.666667 17.066667-42.666667 42.666667s-17.066667 42.666667-42.666667 42.666666H128c-25.6 0-42.666667-17.066667-42.666667-42.666666V341.333333c0-25.6 17.066667-42.666667 42.666667-42.666666h597.333333c25.6 0 42.666667 17.066667 42.666667 42.666666s17.066667 42.666667 42.666667 42.666667h85.333333c25.6 0 42.666667 17.066667 42.666667 42.666667v170.666666z" p-id="3977" fill="#8a8a8a"></path><path d="M640 384H213.333333c-25.6 0-42.666667 17.066667-42.666666 42.666667s17.066667 42.666667 42.666666 42.666666h426.666667c25.6 0 42.666667-17.066667 42.666667-42.666666s-17.066667-42.666667-42.666667-42.666667zM640 554.666667H213.333333c-25.6 0-42.666667 17.066667-42.666666 42.666666s17.066667 42.666667 42.666666 42.666667h426.666667c25.6 0 42.666667-17.066667 42.666667-42.666667s-17.066667-42.666667-42.666667-42.666666z" p-id="3978" fill="#8a8a8a"></path></svg>