<?xml version="1.0" standalone="no"?><!DOCTYPE svg PUBLIC "-//W3C//DTD SVG 1.1//EN" "http://www.w3.org/Graphics/SVG/1.1/DTD/svg11.dtd"><svg t="1660553094186" class="icon" viewBox="0 0 1024 1024" version="1.1" xmlns="http://www.w3.org/2000/svg" p-id="10314" xmlns:xlink="http://www.w3.org/1999/xlink" width="200" height="200"><defs><style type="text/css">@font-face { font-family: "feedback-iconfont"; src: url("//at.alicdn.com/t/font_1031158_u69w8yhxdu.woff2?t=1630033759944") format("woff2"), url("//at.alicdn.com/t/font_1031158_u69w8yhxdu.woff?t=1630033759944") format("woff"), url("//at.alicdn.com/t/font_1031158_u69w8yhxdu.ttf?t=1630033759944") format("truetype"); }
</style></defs><path d="M173 137c-19.882 0-36 16.118-36 36v680c0 19.882 16.118 36 36 36h678c19.882 0 36-16.118 36-36V173c0-19.882-16.118-36-36-36H173z m0-72h678c59.647 0 108 48.353 108 108v680c0 59.647-48.353 108-108 108H173c-59.647 0-108-48.353-108-108V173c0-59.647 48.353-108 108-108z m460.456 677.544c14.059 14.059 14.059 36.853 0 50.912-14.059 14.059-36.853 14.059-50.912 0l-256-256c-14.059-14.059-14.059-36.853 0-50.912l256-256c14.059-14.059 36.853-14.059 50.912 0 14.059 14.059 14.059 36.853 0 50.912L402.912 512l230.544 230.544z" p-id="10315" fill="#8a8a8a"></path></svg>