<?xml version="1.0" standalone="no"?><!DOCTYPE svg PUBLIC "-//W3C//DTD SVG 1.1//EN" "http://www.w3.org/Graphics/SVG/1.1/DTD/svg11.dtd"><svg t="1663419331337" class="icon" viewBox="0 0 1024 1024" version="1.1" xmlns="http://www.w3.org/2000/svg" p-id="3596" xmlns:xlink="http://www.w3.org/1999/xlink" width="200" height="200"><path d="M66.56 66.56v890.88h890.88V66.56H66.56z m827.24352 827.24352H130.18624V130.19648h763.6224v763.60704z" fill="#8a8a8a" p-id="3597"></path><path d="M480.23552 480.25088H311.13728c-17.5616 0-32.01024 14.208-32.01024 31.74912 0 17.65888 14.33088 31.75936 32.01024 31.75936h169.09824v169.09824c0 17.5616 14.22336 32.01024 31.75936 32.01024 17.664 0 31.75936-14.33088 31.75936-32.01024v-169.09824h169.10848c17.5616 0 32-14.21824 32-31.75936 0-17.65888-14.32064-31.74912-32-31.74912h-169.10848V311.1424c0-17.56672-14.21312-32.02048-31.75936-32.02048-17.65376 0-31.75936 14.34112-31.75936 32.02048v169.10848z" fill="#8a8a8a" p-id="3598"></path></svg>