<?xml version="1.0" standalone="no"?><!DOCTYPE svg PUBLIC "-//W3C//DTD SVG 1.1//EN" "http://www.w3.org/Graphics/SVG/1.1/DTD/svg11.dtd"><svg t="1660555434555" class="icon" viewBox="0 0 1117 1024" version="1.1" xmlns="http://www.w3.org/2000/svg" p-id="18063" xmlns:xlink="http://www.w3.org/1999/xlink" width="218.1640625" height="200"><defs><style type="text/css">@font-face { font-family: "feedback-iconfont"; src: url("//at.alicdn.com/t/font_1031158_u69w8yhxdu.woff2?t=1630033759944") format("woff2"), url("//at.alicdn.com/t/font_1031158_u69w8yhxdu.woff?t=1630033759944") format("woff"), url("//at.alicdn.com/t/font_1031158_u69w8yhxdu.ttf?t=1630033759944") format("truetype"); }
</style></defs><path d="M340.267533 68.40185m49.970214 0l677.328501 0q49.970214 0 49.970214 49.970214l0-0.136531q0 49.970214-49.970214 49.970214l-677.328501 0q-49.970214 0-49.970214-49.970214l0 0.136531q0-49.970214 49.970214-49.970214Z" fill="#4D4D4D" p-id="18064"></path><path d="M340.267533 474.853563m49.970214 0l677.328501 0q49.970214 0 49.970214 49.970214l0-0.136531q0 49.970214-49.970214 49.970214l-677.328501 0q-49.970214 0-49.970214-49.970214l0 0.136531q0-49.970214 49.970214-49.970214Z" fill="#4D4D4D" p-id="18065"></path><path d="M340.267533 881.441806m49.970214 0l677.328501 0q49.970214 0 49.970214 49.970214l0-0.136531q0 49.970214-49.970214 49.970214l-677.328501 0q-49.970214 0-49.970214-49.970214l0 0.136531q0-49.970214 49.970214-49.970214Z" fill="#4D4D4D" p-id="18066"></path><path d="M301.21977 10.64939A36.044089 36.044089 0 0 0 275.688541 0a35.907558 35.907558 0 0 0-25.53123 10.64939L123.047286 138.032476 61.745029 76.184097a36.044089 36.044089 0 0 0-25.531229-10.64939A36.180619 36.180619 0 0 0 10.68257 127.246556l87.106548 87.516139A35.771027 35.771027 0 0 0 123.047286 225.275555a35.224905 35.224905 0 0 0 25.394699-10.64939L301.21977 61.575318a36.31715 36.31715 0 0 0 0-50.925928zM301.21977 423.244981a35.907558 35.907558 0 0 0-25.531229-10.512859 35.771027 35.771027 0 0 0-25.53123 10.512859L123.047286 550.491537l-61.302257-61.84838A36.044089 36.044089 0 0 0 36.2138 477.857237a36.180619 36.180619 0 0 0-25.53123 61.848379l87.106548 87.37961a35.771027 35.771027 0 0 0 50.925928 0l152.504724-153.050847a36.453681 36.453681 0 0 0 0-50.789398zM301.21977 809.353629a36.044089 36.044089 0 0 0-25.531229-10.64939 35.907558 35.907558 0 0 0-25.53123 10.64939L123.047286 936.736715l-61.302257-61.848379a35.907558 35.907558 0 0 0-25.531229-10.51286 35.771027 35.771027 0 0 0-25.53123 10.51286 36.180619 36.180619 0 0 0 0 51.062459l87.106548 87.516139a36.044089 36.044089 0 0 0 50.925928 0L301.21977 860.143027a36.453681 36.453681 0 0 0 0-50.789398z" fill="#4D4D4D" p-id="18067"></path></svg>