<?xml version="1.0" standalone="no"?><!DOCTYPE svg PUBLIC "-//W3C//DTD SVG 1.1//EN" "http://www.w3.org/Graphics/SVG/1.1/DTD/svg11.dtd"><svg t="1663408735451" class="icon" viewBox="0 0 1024 1024" version="1.1" xmlns="http://www.w3.org/2000/svg" p-id="2367" xmlns:xlink="http://www.w3.org/1999/xlink" width="200" height="200"><path d="M533.333333 981.333333c-66.046667 0-129.66-14.046667-189.073333-41.74a449.473333 449.473333 0 0 1-149.333333-112.666666 21.333333 21.333333 0 1 1 32.213333-28A405.333333 405.333333 0 0 0 533.333333 938.666667c223.5 0 405.333333-181.833333 405.333334-405.333334s-181.833333-405.333333-405.333334-405.333333c-168.166667 0-316.16 101.713333-376.98 256H320a21.333333 21.333333 0 0 1 0 42.666667H106.666667a21.333333 21.333333 0 0 1-21.333334-21.333334V192a21.333333 21.333333 0 0 1 42.666667 0v150.266667A448.226667 448.226667 0 1 1 533.333333 981.333333z" fill="#5C5C66" p-id="2368"></path></svg>